<svg viewBox="0 0 532 148" width="532" height="148" xmlns="http://www.w3.org/2000/svg">
    <style type="text/css">.st0{fill:#4A494A;}
        .st1{fill:#DDBB2D;}
    </style>
    <g>
        <g id="svg_1">
            <path id="svg_2"
                  d="m157.568687,80.745c1.593,1.701 3.134,2.963 4.622,3.789c1.488,0.825 2.994,1.238 4.517,1.238c0.945,0 1.785,-0.165 2.52,-0.5c0.735,-0.333 1.3,-0.788 1.694,-1.363c0.393,-0.575 0.591,-1.222 0.591,-1.938c0,-1.367 -0.485,-2.376 -1.453,-3.026c-0.969,-0.65 -2.631,-1.258 -4.986,-1.826c-2.3,-0.567 -4.227,-1.287 -5.781,-2.163c-1.554,-0.875 -2.704,-1.951 -3.45,-3.226c-0.746,-1.276 -1.119,-2.865 -1.119,-4.765c0,-1.667 0.307,-3.226 0.921,-4.677c0.613,-1.45 1.507,-2.721 2.682,-3.814c1.175,-1.092 2.595,-1.93 4.26,-2.514c1.666,-0.583 3.472,-0.875 5.418,-0.875c2.156,0 4.182,0.266 6.075,0.8s3.681,1.359 5.364,2.476l-3.293,7.178c-2.414,-1.951 -4.872,-2.927 -7.374,-2.927c-1.26,0 -2.283,0.292 -3.071,0.876c-0.788,0.583 -1.181,1.316 -1.181,2.201c0,0.817 0.253,1.472 0.759,1.962c0.506,0.492 1.09,0.851 1.753,1.075c0.664,0.226 1.867,0.563 3.613,1.013c2.457,0.617 4.445,1.343 5.963,2.176c1.519,0.834 2.673,1.951 3.463,3.352c0.79,1.401 1.185,3.193 1.185,5.378c0,1.901 -0.342,3.638 -1.026,5.215c-0.684,1.575 -1.665,2.934 -2.945,4.076s-2.836,2.031 -4.668,2.664c-1.832,0.634 -3.87,0.95 -6.115,0.95c-2.682,0 -5.102,-0.425 -7.259,-1.276c-2.156,-0.851 -4.296,-2.217 -6.417,-4.102l4.738,-7.427z"
                  class="st0"/>
            <path id="svg_3"
                  d="m306.812687,80.745c1.593,1.701 3.134,2.963 4.622,3.789c1.488,0.825 2.994,1.238 4.517,1.238c0.945,0 1.785,-0.165 2.52,-0.5c0.735,-0.333 1.3,-0.788 1.694,-1.363c0.393,-0.575 0.591,-1.222 0.591,-1.938c0,-1.367 -0.485,-2.376 -1.453,-3.026c-0.969,-0.65 -2.631,-1.258 -4.986,-1.826c-2.3,-0.567 -4.227,-1.287 -5.781,-2.163c-1.554,-0.875 -2.704,-1.951 -3.45,-3.226c-0.746,-1.276 -1.119,-2.865 -1.119,-4.765c0,-1.667 0.307,-3.226 0.921,-4.677c0.613,-1.45 1.507,-2.721 2.682,-3.814c1.175,-1.092 2.595,-1.93 4.26,-2.514c1.666,-0.583 3.472,-0.875 5.418,-0.875c2.156,0 4.182,0.266 6.075,0.8s3.681,1.359 5.364,2.476l-3.293,7.178c-2.414,-1.951 -4.872,-2.927 -7.374,-2.927c-1.26,0 -2.283,0.292 -3.071,0.876c-0.788,0.583 -1.181,1.316 -1.181,2.201c0,0.817 0.253,1.472 0.759,1.962c0.506,0.492 1.09,0.851 1.753,1.075c0.664,0.226 1.867,0.563 3.613,1.013c2.457,0.617 4.445,1.343 5.963,2.176c1.519,0.834 2.673,1.951 3.463,3.352c0.79,1.401 1.185,3.193 1.185,5.378c0,1.901 -0.342,3.638 -1.026,5.215c-0.684,1.575 -1.665,2.934 -2.945,4.076s-2.836,2.031 -4.668,2.664c-1.832,0.634 -3.87,0.95 -6.115,0.95c-2.682,0 -5.102,-0.425 -7.259,-1.276c-2.156,-0.851 -4.296,-2.217 -6.417,-4.102l4.738,-7.427z"
                  class="st0"/>
            <path id="svg_4"
                  d="m224.168687,96.923l-8.523,0l-3.91,-5.139c-2.171,1.136 -4.767,1.705 -7.789,1.705c-3.757,0 -7.138,-0.853 -10.144,-2.558c-3.005,-1.704 -5.359,-4.036 -7.062,-6.994c-1.703,-2.959 -2.555,-6.175 -2.555,-9.651c0,-2.607 0.497,-5.076 1.491,-7.407c0.994,-2.331 2.417,-4.399 4.272,-6.204c1.269,-1.219 2.634,-2.24 4.096,-3.059c1.461,-0.818 3.027,-1.446 4.697,-1.88c1.67,-0.435 3.357,-0.653 5.061,-0.653c1.67,0 3.336,0.21 4.998,0.627c1.661,0.417 3.24,1.049 4.734,1.892c1.495,0.844 2.869,1.868 4.121,3.071c1.837,1.789 3.253,3.852 4.246,6.192c0.994,2.34 1.491,4.813 1.491,7.42c0,2.757 -0.501,5.306 -1.504,7.646c-1.002,2.339 -2.473,4.378 -4.412,6.116l6.692,8.876zm-14.339,-18.952l1.906,2.532c1.103,-1.671 1.654,-3.643 1.654,-5.916c0,-1.622 -0.238,-3.109 -0.715,-4.463c-0.476,-1.353 -1.149,-2.527 -2.018,-3.521c-0.869,-0.994 -1.884,-1.759 -3.046,-2.295c-1.162,-0.534 -2.436,-0.802 -3.823,-0.802c-1.771,0 -3.401,0.477 -4.888,1.429c-1.488,0.952 -2.645,2.252 -3.472,3.898c-0.827,1.646 -1.241,3.48 -1.241,5.502c0,1.504 0.23,2.924 0.689,4.261s1.119,2.498 1.98,3.484c0.861,0.987 1.897,1.756 3.108,2.307c1.212,0.551 2.503,0.827 3.873,0.827c0.752,0 1.587,-0.185 2.507,-0.551l-5.189,-6.694l8.675,0l0,0.002z"
                  class="st0"/>
            <path id="svg_5"
                  d="m226.963687,55.084l10.484,0l0,19.838c0,2.4 0.184,4.296 0.552,5.689c0.368,1.392 1.025,2.426 1.971,3.1c0.946,0.675 2.329,1.012 4.151,1.012c1.559,0 2.794,-0.245 3.705,-0.736c0.911,-0.491 1.58,-1.234 2.01,-2.233c0.429,-0.998 0.696,-2.203 0.801,-3.613c0.105,-1.411 0.158,-3.289 0.158,-5.636l0,-17.421l10.431,0l0,21.835c0,2.978 -0.324,5.501 -0.972,7.568c-0.649,2.067 -1.653,3.771 -3.011,5.11c-1.359,1.34 -3.12,2.335 -5.285,2.983c-2.165,0.647 -4.781,0.972 -7.849,0.972c-2.208,0 -4.176,-0.171 -5.903,-0.513c-1.727,-0.341 -3.248,-0.858 -4.562,-1.55c-1.315,-0.692 -2.428,-1.563 -3.34,-2.614c-0.736,-0.858 -1.328,-1.778 -1.775,-2.759c-0.447,-0.98 -0.78,-2.058 -0.999,-3.231c-0.219,-1.173 -0.369,-2.4 -0.447,-3.679c-0.079,-1.278 -0.118,-2.74 -0.118,-4.387l0,-19.735l-0.002,0z"
                  class="st0"/>
            <path id="svg_6"
                  d="m260.648687,93.551l13.269,-38.467l13.137,0l13.295,38.467l-10.431,0l-1.944,-6.884l-14.897,0l-1.997,6.884l-10.432,0zm14.687,-14.372l10.431,0l-3.915,-12.692c-0.105,-0.367 -0.543,-2.092 -1.314,-5.176c-0.368,1.489 -0.661,2.645 -0.88,3.468c-0.219,0.823 -0.373,1.393 -0.46,1.708l-3.862,12.692z"
                  class="st0"/>
            <path id="svg_7"
                  d="m334.050687,93.551l0,-38.467l10.484,0l0,14.951l14.005,0l0,-14.951l10.483,0l0,38.467l-10.483,0l0,-15.66l-14.005,0l0,15.66l-10.484,0z"
                  class="st0"/>
            <path id="svg_8"
                  d="m411.888687,74.301c0,2.624 -0.485,5.098 -1.455,7.421s-2.383,4.387 -4.239,6.193c-1.857,1.805 -3.994,3.197 -6.41,4.175c-2.418,0.977 -4.921,1.466 -7.513,1.466c-2.593,0 -5.089,-0.49 -7.489,-1.466c-2.4,-0.978 -4.528,-2.369 -6.385,-4.175c-1.872,-1.822 -3.298,-3.894 -4.277,-6.218c-0.978,-2.323 -1.467,-4.788 -1.467,-7.396c0,-2.624 0.49,-5.102 1.467,-7.434c0.979,-2.332 2.405,-4.409 4.277,-6.23c1.839,-1.789 3.965,-3.168 6.372,-4.137c2.409,-0.969 4.908,-1.455 7.502,-1.455c2.609,0 5.121,0.486 7.539,1.455c2.416,0.969 4.544,2.348 6.385,4.137c1.856,1.805 3.269,3.874 4.239,6.205c0.969,2.331 1.454,4.817 1.454,7.459zm-19.618,15.143c2.006,0 3.918,-0.381 5.733,-1.141c1.815,-0.76 3.45,-1.867 4.906,-3.322c1.438,-1.437 2.534,-3.067 3.287,-4.888c0.753,-1.822 1.13,-3.752 1.13,-5.792c0,-2.056 -0.381,-4.012 -1.142,-5.867c-0.762,-1.855 -1.852,-3.493 -3.274,-4.914c-1.44,-1.437 -3.067,-2.533 -4.881,-3.284c-1.815,-0.753 -3.736,-1.128 -5.759,-1.128c-2.042,0 -3.974,0.376 -5.797,1.128c-1.823,0.751 -3.437,1.847 -4.843,3.284c-1.438,1.454 -2.534,3.101 -3.288,4.939c-0.753,1.839 -1.128,3.786 -1.128,5.842c0,2.039 0.372,3.961 1.117,5.766c0.744,1.805 1.843,3.444 3.299,4.914c1.473,1.471 3.107,2.582 4.906,3.335c1.799,0.751 3.71,1.128 5.734,1.128z"
                  class="st1"/>
            <path id="svg_9" d="m415.433687,93.551l0,-38.467l4.571,0l0,34.105l14.531,0l0,4.362l-19.102,0z" class="st1"/>
            <path id="svg_10"
                  d="m435.027687,55.084l4.624,0l0,22.913c0,3.889 0.827,6.743 2.483,8.565c1.655,1.823 4.252,2.732 7.79,2.732s6.134,-0.91 7.79,-2.732c1.656,-1.822 2.483,-4.676 2.483,-8.565l0,-22.913l4.651,0l0,22.913c0,5.202 -1.24,9.095 -3.719,11.679c-2.478,2.584 -6.214,3.875 -11.206,3.875c-4.976,0 -8.701,-1.291 -11.181,-3.875c-2.478,-2.584 -3.718,-6.477 -3.718,-11.679l0,-22.913l0.003,0z"
                  class="st1"/>
            <path id="svg_11"
                  d="m468.395687,93.551l0,-38.572l28.14,27.905l0,-27.8l4.362,0l0,38.547l-28.14,-27.564l0,27.484l-4.362,0z"
                  class="st1"/>
            <path id="svg_12"
                  d="m504.442687,93.551l0,-38.467l4.52,0l0,17.106l16.159,-17.106l5.465,0l-16.501,17.315l18.13,21.152l-5.912,0l-17.342,-20.705l0,20.705l-4.519,0z"
                  class="st1"/>
        </g>
        <g id="svg_13">
            <path id="svg_14"
                  d="m135.420687,73.135c-0.006,-0.11 -0.015,-0.223 -0.024,-0.335l-0.026,-0.349c-0.01,-0.145 -0.02,-0.291 -0.034,-0.435c-0.018,-0.186 -0.042,-0.371 -0.066,-0.556l-0.034,-0.274c-0.011,-0.093 -0.022,-0.186 -0.036,-0.279c-0.034,-0.233 -0.076,-0.464 -0.117,-0.695l-0.073,-0.409c-0.047,-0.241 -0.103,-0.483 -0.159,-0.724l-0.085,-0.371c-0.058,-0.233 -0.123,-0.464 -0.188,-0.694l-0.112,-0.397c-0.064,-0.214 -0.135,-0.426 -0.206,-0.638l-0.035,-0.105c-0.038,-0.114 -0.075,-0.228 -0.115,-0.34c-0.064,-0.18 -0.133,-0.358 -0.202,-0.536l-0.043,-0.111c-0.055,-0.141 -0.109,-0.283 -0.168,-0.423c-0.055,-0.133 -0.114,-0.265 -0.172,-0.398l-0.038,-0.085c-0.087,-0.197 -0.168,-0.381 -0.254,-0.562c-0.049,-0.103 -0.1,-0.204 -0.151,-0.305l-0.051,-0.101c-0.102,-0.205 -0.204,-0.41 -0.312,-0.61l-0.193,-0.347c-0.119,-0.213 -0.24,-0.427 -0.367,-0.638l-0.193,-0.309c-0.134,-0.214 -0.268,-0.429 -0.409,-0.639l-0.21,-0.3c-0.143,-0.206 -0.286,-0.412 -0.435,-0.612l-0.302,-0.389c-0.127,-0.165 -0.254,-0.329 -0.386,-0.49c-0.082,-0.101 -0.167,-0.198 -0.252,-0.295l-0.231,-0.268c-0.082,-0.097 -0.165,-0.194 -0.25,-0.288c-0.244,-0.269 -0.495,-0.534 -0.754,-0.794l-0.056,-0.056c-0.261,-0.26 -0.528,-0.513 -0.798,-0.758c-0.092,-0.083 -0.188,-0.165 -0.284,-0.246l-0.259,-0.224c-0.102,-0.088 -0.203,-0.177 -0.307,-0.262c-0.154,-0.127 -0.311,-0.248 -0.469,-0.369l-0.412,-0.32c-0.199,-0.148 -0.404,-0.291 -0.609,-0.432l-0.303,-0.211c-0.211,-0.142 -0.424,-0.276 -0.638,-0.409l-0.312,-0.195c-0.208,-0.125 -0.42,-0.244 -0.632,-0.363l-0.354,-0.197c-0.191,-0.102 -0.384,-0.199 -0.578,-0.296l-0.141,-0.07c-0.099,-0.049 -0.197,-0.099 -0.296,-0.146c-0.173,-0.082 -0.346,-0.159 -0.519,-0.235l-0.141,-0.062c-0.128,-0.057 -0.257,-0.114 -0.386,-0.167c-0.136,-0.057 -0.272,-0.109 -0.408,-0.162l-0.091,-0.035c-0.221,-0.085 -0.396,-0.153 -0.572,-0.216c-0.107,-0.038 -0.218,-0.075 -0.329,-0.111l-0.106,-0.035c-0.215,-0.072 -0.43,-0.143 -0.646,-0.208l-0.389,-0.111c-0.233,-0.066 -0.468,-0.131 -0.704,-0.19l-0.359,-0.083c-0.243,-0.056 -0.489,-0.112 -0.735,-0.161l-0.37,-0.066c-0.244,-0.044 -0.487,-0.088 -0.732,-0.124c-0.091,-0.014 -0.183,-0.024 -0.275,-0.035l-0.254,-0.032c-0.193,-0.025 -0.386,-0.05 -0.58,-0.069c-0.135,-0.013 -0.272,-0.022 -0.409,-0.032l-0.348,-0.025c-0.121,-0.01 -0.242,-0.019 -0.363,-0.025c-0.376,-0.018 -0.755,-0.029 -1.137,-0.029l-88.716,0c-6.145,0 -11.923,2.393 -16.27,6.738c-0.27,0.27 -0.531,0.545 -0.786,0.827c-0.075,0.083 -0.146,0.167 -0.218,0.25l-0.241,0.279c-0.093,0.107 -0.186,0.214 -0.276,0.323c-0.123,0.15 -0.241,0.304 -0.36,0.457l-0.154,0.198c-0.059,0.075 -0.118,0.15 -0.175,0.226c-0.144,0.194 -0.283,0.394 -0.422,0.594l-0.223,0.32c-0.137,0.204 -0.268,0.414 -0.399,0.623l-0.204,0.326c-0.123,0.203 -0.239,0.412 -0.356,0.62l-0.204,0.364c-0.104,0.194 -0.203,0.392 -0.302,0.591l-0.053,0.106c-0.053,0.106 -0.107,0.213 -0.158,0.32c-0.079,0.166 -0.153,0.336 -0.228,0.505l-0.05,0.114c-0.063,0.142 -0.126,0.285 -0.186,0.428c-0.052,0.125 -0.101,0.251 -0.149,0.377l-0.042,0.107c-0.088,0.228 -0.157,0.405 -0.22,0.584c-0.037,0.102 -0.07,0.203 -0.104,0.304l-0.039,0.118c-0.074,0.22 -0.147,0.44 -0.214,0.662l-0.104,0.368c-0.068,0.241 -0.136,0.481 -0.196,0.723l-0.078,0.339c-0.058,0.252 -0.116,0.504 -0.166,0.758l-0.061,0.341c-0.046,0.254 -0.091,0.506 -0.129,0.76l-0.049,0.392c-0.036,0.278 -0.065,0.497 -0.086,0.717c-0.011,0.114 -0.019,0.229 -0.027,0.344l-0.027,0.362c-0.011,0.138 -0.022,0.276 -0.029,0.414c-0.015,0.321 -0.022,0.644 -0.024,0.969l-0.004,0.188l0.004,0.131c0.003,0.339 0.009,0.66 0.024,0.979c0.007,0.144 0.018,0.287 0.03,0.43l0.026,0.356c0.008,0.112 0.015,0.224 0.026,0.335c0.021,0.223 0.051,0.445 0.08,0.668l0.056,0.441c0.037,0.254 0.083,0.509 0.129,0.763l0.06,0.336c0.05,0.255 0.108,0.508 0.167,0.762l0.077,0.334c0.061,0.246 0.128,0.487 0.197,0.728l0.104,0.366c0.067,0.223 0.141,0.445 0.215,0.666l0.037,0.112c0.033,0.101 0.067,0.202 0.103,0.302c0.069,0.193 0.143,0.385 0.217,0.576l0.045,0.116c0.049,0.126 0.098,0.253 0.149,0.377c0.061,0.147 0.125,0.293 0.19,0.439l0.064,0.144c0.069,0.156 0.138,0.311 0.21,0.464c0.053,0.111 0.109,0.224 0.166,0.336l0.048,0.097c0.098,0.196 0.196,0.392 0.299,0.584c0.05,0.094 0.104,0.188 0.157,0.282l0.049,0.086c0.117,0.209 0.232,0.415 0.354,0.617l0.209,0.334c0.129,0.206 0.259,0.413 0.394,0.615l0.229,0.328c0.137,0.197 0.273,0.392 0.414,0.582c0.067,0.09 0.134,0.175 0.2,0.26l0.149,0.192c0.112,0.145 0.223,0.29 0.339,0.431c0.103,0.125 0.21,0.248 0.317,0.37l0.203,0.235c0.07,0.082 0.14,0.165 0.213,0.245c0.256,0.283 0.518,0.559 0.787,0.828c0.27,0.27 0.546,0.532 0.829,0.788c0.077,0.07 0.156,0.137 0.235,0.204l0.239,0.206c0.125,0.109 0.249,0.218 0.376,0.322c0.129,0.106 0.261,0.208 0.392,0.31l0.249,0.193c0.079,0.063 0.159,0.125 0.239,0.185c0.187,0.139 0.377,0.271 0.567,0.404l0.347,0.242c0.201,0.135 0.406,0.264 0.611,0.392l0.338,0.212c0.201,0.121 0.405,0.235 0.61,0.35l0.128,0.073c0.081,0.046 0.162,0.091 0.243,0.135c0.195,0.105 0.389,0.202 0.584,0.299l0.108,0.054c0.109,0.055 0.219,0.11 0.329,0.163c0.152,0.072 0.307,0.14 0.461,0.208l0.141,0.063c0.147,0.065 0.294,0.131 0.443,0.192c0.111,0.046 0.224,0.09 0.336,0.133l0.139,0.055c0.228,0.088 0.409,0.158 0.591,0.222l0.414,0.14c0.229,0.076 0.448,0.15 0.67,0.216l0.362,0.103c0.242,0.068 0.486,0.136 0.73,0.197l0.328,0.075c0.257,0.06 0.512,0.118 0.769,0.169l0.333,0.059c0.253,0.046 0.509,0.092 0.766,0.129l0.471,0.06c0.212,0.028 0.425,0.055 0.638,0.076c0.106,0.011 0.212,0.018 0.318,0.025l0.353,0.026c0.15,0.012 0.3,0.024 0.451,0.032c0.301,0.015 0.605,0.02 0.91,0.022l0.222,0.006l88.718,0c6.144,0 11.921,-2.393 16.268,-6.737c0.272,-0.272 0.534,-0.547 0.788,-0.829c0.081,-0.09 0.159,-0.181 0.238,-0.274l0.212,-0.246c0.096,-0.11 0.192,-0.22 0.283,-0.332c0.122,-0.148 0.239,-0.299 0.355,-0.45l0.333,-0.43c0.146,-0.197 0.286,-0.399 0.427,-0.601l0.216,-0.309c0.14,-0.208 0.273,-0.42 0.406,-0.632l0.197,-0.315c0.126,-0.209 0.245,-0.421 0.365,-0.634l0.194,-0.348c0.108,-0.201 0.209,-0.404 0.311,-0.607l0.057,-0.113c0.05,-0.099 0.1,-0.199 0.147,-0.298c0.08,-0.17 0.156,-0.34 0.231,-0.51l0.055,-0.124c0.06,-0.137 0.121,-0.274 0.178,-0.412c0.059,-0.142 0.114,-0.285 0.169,-0.428l0.027,-0.071c0.086,-0.223 0.153,-0.395 0.216,-0.57c0.04,-0.112 0.078,-0.228 0.116,-0.342l0.032,-0.097c0.072,-0.214 0.143,-0.428 0.207,-0.642l0.111,-0.393c0.065,-0.232 0.131,-0.464 0.188,-0.697l0.084,-0.367c0.057,-0.245 0.112,-0.487 0.16,-0.732l0.066,-0.371c0.044,-0.245 0.088,-0.486 0.124,-0.729c0.014,-0.092 0.024,-0.184 0.035,-0.276l0.034,-0.269c0.024,-0.188 0.049,-0.376 0.067,-0.564c0.013,-0.137 0.023,-0.277 0.032,-0.416l0.026,-0.352c0.009,-0.117 0.019,-0.234 0.025,-0.352c0.018,-0.379 0.029,-0.759 0.029,-1.139c0.008,-0.389 -0.003,-0.769 -0.021,-1.147zm-22.982,20.169c-10.509,0 -19.028,-8.519 -19.028,-19.028s8.519,-19.028 19.028,-19.028s19.028,8.519 19.028,19.028s-8.519,19.028 -19.028,19.028z"
                  class="st0"/>
            <path id="svg_15"
                  d="m54.183687,99.988l-8.918,8.242c-4.346,4.346 -6.739,10.125 -6.739,16.271c0,6.147 2.394,11.925 6.739,16.271c4.346,4.346 10.125,6.739 16.271,6.739c6.146,0 11.925,-2.393 16.271,-6.739l42.785,-42.11c-2.614,0.874 -5.365,1.325 -8.155,1.325l-58.254,0l0,0.001z"
                  class="st0"/>
            <path id="svg_16"
                  d="m81.974687,48.563l8.243,-8.242c4.346,-4.346 6.739,-10.125 6.739,-16.271c0,-6.147 -2.394,-11.925 -6.739,-16.271c-4.346,-4.346 -10.125,-6.739 -16.271,-6.739c-6.147,0 -11.925,2.394 -16.271,6.739l-42.11,42.11c2.614,-0.874 5.366,-1.325 8.155,-1.325l58.254,0l0,-0.001z"
                  class="st0"/>
            <circle id="svg_17" r="2.346" cy="71.213" cx="115.501687" class="st1"/>
            <circle id="svg_18" r="2.346" cy="77.339" cx="109.375687" class="st1"/>
        </g>
    </g>
</svg>