<svg viewBox="0 0 380 85" width="380" height="85" xmlns="http://www.w3.org/2000/svg">
    <g>
        <g id="svg_1">
            <path id="svg_2"
                  d="m6.769449,52.69687c1.156,-0.105 1.778,0.313 1.864,1.256c0.064,0.707 -0.423,1.29 -1.46,1.753c-1.782,0.832 -2.595,2.104 -2.438,3.818c0.126,1.371 0.759,2.394 1.9,3.066c0.979,0.559 2.177,0.773 3.591,0.645c2.827,-0.259 5.226,-1.309 7.195,-3.152c1.232,-1.17 1.775,-2.56 1.629,-4.166c-0.09,-0.985 -0.364,-1.856 -0.822,-2.613c-0.48,-0.777 -1.196,-1.749 -2.145,-2.914c-1.462,-1.812 -2.704,-3.469 -3.726,-4.974c-1.146,-1.666 -1.797,-3.347 -1.951,-5.038c-0.365,-4.006 1.274,-7.936 4.918,-11.789c1.934,-2.012 4.111,-3.702 6.536,-5.068c2.015,-1.112 3.997,-1.758 5.946,-1.936c1.264,-0.115 2.364,0.119 3.304,0.703c1.144,0.694 1.778,1.728 1.903,3.098c0.195,2.142 -0.75,4.561 -2.837,7.257c-1.972,2.534 -4.347,4.674 -7.125,6.417c-1.391,0.861 -2.461,1.326 -3.21,1.395c-0.493,0.045 -0.95,-0.118 -1.373,-0.49c-0.282,-0.255 -0.439,-0.554 -0.471,-0.896c-0.072,-0.792 0.576,-1.5 1.945,-2.122c2.507,-1.158 4.681,-2.663 6.521,-4.516c2.375,-2.376 3.489,-4.368 3.343,-5.975c-0.057,-0.621 -0.359,-1.101 -0.909,-1.44c-0.435,-0.262 -0.931,-0.369 -1.487,-0.318c-1.479,0.135 -3.278,0.872 -5.402,2.21c-2.86,1.795 -5.038,3.97 -6.532,6.525c-1.311,2.215 -1.876,4.308 -1.695,6.279c0.131,1.436 0.662,2.877 1.594,4.325c0.775,1.16 1.747,2.465 2.916,3.913c1.12,1.388 2.081,2.683 2.882,3.885c0.93,1.427 1.454,2.793 1.573,4.1c0.23,2.527 -1.011,4.898 -3.725,7.111c-2.315,1.854 -5.025,2.921 -8.131,3.205c-3.063,0.279 -5.54,-0.348 -7.43,-1.882c-1.423,-1.166 -2.212,-2.585 -2.364,-4.256c-0.17,-1.863 0.309,-3.482 1.436,-4.86c0.679,-0.84 1.515,-1.499 2.508,-1.979c0.681,-0.341 1.258,-0.534 1.729,-0.577z"/>
            <path id="svg_3"
                  d="m33.672449,59.21587c-1.809,2.67 -3.463,4.073 -4.962,4.21c-0.984,0.09 -1.799,-0.311 -2.442,-1.202c-0.419,-0.566 -0.668,-1.289 -0.748,-2.167c-0.182,-1.992 0.291,-4.39 1.417,-7.192c1.518,-3.724 3.51,-6.746 5.977,-9.066c1.454,-1.342 2.866,-2.076 4.237,-2.201c1.157,-0.105 2.01,0.249 2.56,1.063c0.396,0.568 0.627,1.195 0.689,1.881c0.023,0.257 0.034,0.612 0.032,1.066c0.644,0.18 0.981,0.461 1.018,0.847c0.023,0.257 -0.136,0.769 -0.476,1.533c-1.182,2.916 -3.102,8.265 -5.761,16.045c-2.343,6.758 -4.025,12.689 -5.05,17.794c-0.228,1.532 -0.748,2.336 -1.562,2.41c-0.45,0.041 -0.824,-0.151 -1.122,-0.578c-0.223,-0.303 -0.351,-0.638 -0.384,-1.001c-0.119,-1.308 0.777,-5.104 2.687,-11.391c0.895,-2.976 1.735,-5.602 2.521,-7.875c0.617,-1.764 1.073,-3.156 1.369,-4.176zm1.221,-5.426c-0.112,-0.292 -0.176,-0.513 -0.189,-0.663c-0.045,-0.492 0.271,-1.159 0.951,-1.998c1.302,-1.587 1.87,-3.291 1.704,-5.112c-0.039,-0.429 -0.144,-0.742 -0.313,-0.943c-0.169,-0.2 -0.415,-0.286 -0.735,-0.257c-1.093,0.1 -2.667,1.787 -4.722,5.063c-0.981,1.56 -1.797,3.383 -2.449,5.473c-0.451,1.445 -0.645,2.521 -0.58,3.227c0.029,0.322 0.151,0.592 0.365,0.81c0.268,0.321 0.615,0.463 1.043,0.424c0.879,-0.08 1.891,-0.95 3.034,-2.61c0.494,-0.735 0.916,-1.443 1.264,-2.124c0.422,-0.817 0.631,-1.247 0.627,-1.29z"/>
            <path id="svg_4"
                  d="m52.274449,56.09187c-0.804,1.369 -1.523,2.472 -2.16,3.308c-1.117,1.484 -2.286,2.281 -3.508,2.393c-1.049,0.096 -1.906,-0.3 -2.57,-1.189c-0.467,-0.627 -0.743,-1.401 -0.827,-2.322c-0.253,-2.764 0.637,-6.041 2.666,-9.834c0.94,-1.77 1.905,-3.144 2.896,-4.119c0.771,-0.783 1.424,-1.199 1.959,-1.248c0.301,-0.027 0.591,0.075 0.871,0.31c0.235,0.216 0.364,0.441 0.386,0.677c0.037,0.407 -0.299,1.108 -1.007,2.101c-1.585,2.284 -2.757,4.355 -3.515,6.218c-0.882,2.176 -1.268,3.853 -1.16,5.03c0.027,0.301 0.117,0.523 0.271,0.671c0.153,0.149 0.359,0.211 0.616,0.188c1.092,-0.1 2.47,-1.801 4.134,-5.107c0.858,-1.72 1.562,-3.598 2.11,-5.636c0.288,-1.105 0.704,-2.104 1.249,-2.997c0.531,-0.804 1.086,-1.233 1.665,-1.286c0.32,-0.029 0.623,0.084 0.905,0.339c0.306,0.274 0.476,0.594 0.509,0.958c0.07,0.771 -0.511,2.573 -1.742,5.407c-0.837,1.955 -1.198,3.556 -1.085,4.797c0.122,1.329 0.579,2.432 1.371,3.31c0.217,0.238 0.843,0.593 1.879,1.059c0.496,0.236 0.773,0.664 0.83,1.285c0.035,0.386 -0.102,0.733 -0.407,1.042c-0.307,0.309 -0.695,0.484 -1.167,0.527c-1.071,0.099 -2.085,-0.241 -3.041,-1.019c-0.863,-0.698 -1.469,-1.767 -1.815,-3.203c-0.06,-0.193 -0.163,-0.745 -0.313,-1.66z"/>
            <path id="svg_5"
                  d="m69.815449,54.10287c-0.593,1.307 -1.194,2.42 -1.802,3.338c-1.196,1.795 -2.46,2.752 -3.787,2.873c-1.157,0.105 -2.106,-0.357 -2.849,-1.392c-0.471,-0.669 -0.751,-1.486 -0.839,-2.451c-0.217,-2.376 0.293,-5.068 1.53,-8.077c1.38,-3.343 3.169,-5.979 5.369,-7.909c1.44,-1.254 2.878,-1.947 4.313,-2.078c0.899,-0.082 1.675,0.128 2.326,0.63c0.559,0.446 0.866,0.979 0.923,1.601c0.043,0.472 -0.079,1.142 -0.367,2.01c0.362,0.421 0.56,0.803 0.591,1.146c0.041,0.449 -0.192,1.217 -0.697,2.299c-0.526,1.106 -1.021,2.556 -1.482,4.348c-0.496,1.902 -0.693,3.411 -0.592,4.524c0.082,0.899 0.418,1.614 1.006,2.144c0.163,0.137 0.625,0.343 1.385,0.618c0.559,0.209 0.867,0.634 0.926,1.276c0.038,0.408 -0.082,0.753 -0.358,1.037c-0.296,0.309 -0.658,0.481 -1.086,0.521c-1.157,0.106 -2.2,-0.317 -3.13,-1.27c-0.762,-0.772 -1.199,-1.791 -1.314,-3.055c-0.04,-0.429 -0.062,-1.14 -0.066,-2.133zm3.051,-10.939c-0.3,-0.447 -0.61,-0.771 -0.931,-0.968s-0.651,-0.28 -0.994,-0.249c-1.628,0.148 -3.265,1.734 -4.911,4.757c-1.813,3.341 -2.618,6.103 -2.419,8.288c0.049,0.536 0.188,0.933 0.417,1.192c0.229,0.261 0.547,0.372 0.953,0.335c1.028,-0.094 2.128,-1.295 3.3,-3.606c0.662,-1.269 1.453,-3.123 2.376,-5.562c0.61,-1.59 1.064,-2.646 1.363,-3.171c0.148,-0.271 0.43,-0.61 0.846,-1.016z"/>
            <path id="svg_6"
                  d="m90.682449,36.03087c1.328,-0.121 2.346,0.024 3.053,0.434c0.707,0.411 1.104,1.098 1.192,2.062c0.115,1.265 -0.244,2.528 -1.079,3.792c-0.798,1.197 -2.065,2.22 -3.803,3.068c-0.952,0.454 -1.761,0.712 -2.424,0.772c-0.899,0.082 -1.386,-0.272 -1.458,-1.065c-0.049,-0.536 0.171,-0.966 0.66,-1.292c0.122,-0.075 0.834,-0.323 2.135,-0.745c0.777,-0.244 1.471,-0.686 2.083,-1.324c0.533,-0.545 0.772,-1.107 0.72,-1.686c-0.041,-0.45 -0.199,-0.77 -0.476,-0.961c-0.277,-0.19 -0.673,-0.263 -1.187,-0.216c-1.242,0.113 -2.567,0.742 -3.975,1.886c-1.632,1.294 -2.376,2.723 -2.233,4.285c0.102,1.114 0.796,2.454 2.084,4.021c1.43,1.707 2.203,3.191 2.318,4.455c0.172,1.885 -0.529,3.438 -2.103,4.662c-0.967,0.758 -2.104,1.196 -3.411,1.315c-2.056,0.188 -3.687,-0.408 -4.893,-1.788c-0.846,-0.981 -1.334,-2.189 -1.465,-3.625c-0.152,-1.671 0.148,-3.112 0.901,-4.326c0.488,-0.801 1.032,-1.229 1.632,-1.283c0.535,-0.049 0.822,0.141 0.862,0.569c0.016,0.172 -0.058,0.438 -0.219,0.798c-0.409,0.966 -0.557,2.07 -0.442,3.313c0.096,1.05 0.551,1.904 1.367,2.564c0.723,0.581 1.513,0.834 2.369,0.756c0.836,-0.076 1.463,-0.414 1.884,-1.015c0.343,-0.506 0.48,-1.124 0.414,-1.852c-0.082,-0.9 -0.702,-2.021 -1.862,-3.361c-1.594,-1.843 -2.463,-3.566 -2.609,-5.173c-0.195,-2.142 0.799,-4.145 2.983,-6.008c2.128,-1.789 4.455,-2.801 6.982,-3.032z"/>
            <path id="svg_7"
                  d="m101.230449,43.32887c1.435,-1.793 2.894,-3.319 4.377,-4.579c1.905,-1.599 3.298,-2.439 4.176,-2.519c0.364,-0.033 0.731,0.085 1.102,0.353c0.417,0.308 0.646,0.687 0.687,1.136c0.053,0.579 -0.326,1.521 -1.135,2.826c-1.563,2.519 -2.717,4.783 -3.462,6.796c-0.662,1.745 -0.965,2.917 -0.91,3.518c0.053,0.577 0.357,0.842 0.915,0.79c1.156,-0.105 2.917,-2.34 5.284,-6.703c0.48,-0.886 0.946,-1.35 1.396,-1.391c0.45,-0.041 0.698,0.195 0.745,0.71c0.077,0.836 -0.592,2.506 -2.005,5.011c-1.226,2.186 -2.56,3.895 -4.003,5.127c-1.024,0.85 -1.975,1.315 -2.854,1.396c-0.921,0.084 -1.621,-0.252 -2.101,-1.008c-0.302,-0.469 -0.48,-1.004 -0.535,-1.604c-0.174,-1.906 0.303,-4.143 1.43,-6.707c0.268,-0.607 1.081,-2.345 2.44,-5.212c-4.169,2.604 -7.429,7.709 -9.781,15.31c-0.202,0.861 -0.592,1.317 -1.171,1.371c-0.406,0.036 -0.752,-0.072 -1.033,-0.327c-0.285,-0.276 -0.446,-0.629 -0.485,-1.058c-0.064,-0.707 0.438,-2.771 1.508,-6.196c1.989,-6.358 3.894,-11.759 5.713,-16.202c1.816,-4.485 3.863,-9.154 6.142,-14.005c0.541,-1.172 0.976,-1.969 1.305,-2.387c0.329,-0.419 0.697,-0.646 1.104,-0.684c0.387,-0.035 0.736,0.138 1.053,0.519c0.241,0.281 0.38,0.614 0.415,1c0.055,0.6 -0.215,1.435 -0.809,2.503c-1.987,3.789 -3.931,7.929 -5.832,12.423c-2.047,4.807 -3.272,8.072 -3.676,9.793z"/>
            <path id="svg_8"
                  d="m125.697449,33.45087c1.756,-0.16 2.732,0.831 2.928,2.973c0.26,2.85 -0.729,6.579 -2.964,11.189c-2.438,4.996 -4.997,7.615 -7.674,7.859c-1.242,0.114 -2.206,-0.381 -2.89,-1.485c-0.353,-0.551 -0.565,-1.233 -0.64,-2.047c-0.251,-2.742 0.42,-5.806 2.012,-9.19c1.484,-3.138 3.34,-5.64 5.567,-7.507c1.305,-1.092 2.525,-1.689 3.661,-1.792zm-2.233,12.451c-0.574,-0.38 -0.873,-0.687 -0.895,-0.922c-0.016,-0.173 0.283,-0.675 0.899,-1.509c1.73,-2.34 2.535,-4.173 2.414,-5.501c-0.016,-0.171 -0.086,-0.338 -0.208,-0.499c-0.201,-0.307 -0.483,-0.442 -0.848,-0.409c-0.686,0.063 -1.632,0.818 -2.838,2.268c-1.558,1.87 -2.703,3.757 -3.436,5.659c-0.86,2.174 -1.229,3.946 -1.104,5.316c0.034,0.364 0.16,0.677 0.378,0.938c0.313,0.36 0.685,0.521 1.113,0.481c1.028,-0.094 2.061,-0.965 3.098,-2.615c0.455,-0.688 0.813,-1.391 1.071,-2.106c0.261,-0.716 0.379,-1.082 0.356,-1.101z"/>
            <path id="svg_9"
                  d="m134.743449,42.76587c-0.489,1.729 -0.849,3.123 -1.076,4.181s-0.322,1.79 -0.285,2.197c0.049,0.535 0.33,0.779 0.845,0.732c0.771,-0.07 1.7,-0.89 2.788,-2.458c0.514,-0.76 1.254,-2.111 2.222,-4.059c0.384,-0.769 0.82,-1.176 1.313,-1.221c0.557,-0.051 0.86,0.191 0.909,0.727c0.084,0.921 -0.806,2.882 -2.67,5.882c-1.939,3.136 -3.852,4.79 -5.736,4.962c-0.813,0.074 -1.509,-0.208 -2.086,-0.847c-0.409,-0.46 -0.646,-1.043 -0.71,-1.749c-0.109,-1.2 0.104,-2.894 0.638,-5.08c0.534,-2.188 1.381,-4.867 2.539,-8.04c2.978,-8.069 6.155,-14.785 9.532,-20.147c2.695,-4.306 5.05,-6.552 7.063,-6.736c0.644,-0.059 1.19,0.14 1.643,0.596c0.473,0.454 0.739,1.002 0.798,1.645c0.273,2.999 -1.948,8.234 -6.666,15.706c-2.116,3.326 -4.702,6.693 -7.761,10.104c-0.804,0.894 -1.905,2.096 -3.3,3.605zm1.815,-5.317c4.107,-4.219 7.651,-9.402 10.633,-15.55c1.545,-3.186 2.272,-5.272 2.183,-6.257c-0.043,-0.471 -0.268,-0.688 -0.675,-0.651c-1.179,0.107 -3.106,2.648 -5.784,7.623c-2.218,4.089 -4.338,9.035 -6.357,14.835z"/>
            <path id="svg_10"
                  d="m153.100449,46.88987c-0.804,1.369 -1.523,2.472 -2.16,3.308c-1.117,1.484 -2.286,2.281 -3.508,2.393c-1.049,0.096 -1.906,-0.3 -2.57,-1.189c-0.468,-0.627 -0.743,-1.401 -0.827,-2.322c-0.253,-2.764 0.637,-6.041 2.666,-9.834c0.94,-1.77 1.905,-3.144 2.896,-4.12c0.771,-0.783 1.425,-1.199 1.96,-1.248c0.3,-0.027 0.591,0.076 0.871,0.31c0.235,0.216 0.364,0.442 0.386,0.677c0.037,0.407 -0.299,1.108 -1.007,2.101c-1.585,2.284 -2.757,4.355 -3.515,6.218c-0.882,2.176 -1.269,3.853 -1.161,5.03c0.027,0.301 0.118,0.523 0.272,0.671c0.153,0.149 0.359,0.211 0.615,0.188c1.093,-0.1 2.471,-1.801 4.135,-5.107c0.858,-1.72 1.562,-3.598 2.11,-5.636c0.288,-1.105 0.704,-2.105 1.249,-2.997c0.531,-0.805 1.086,-1.234 1.665,-1.287c0.32,-0.029 0.622,0.084 0.905,0.339c0.306,0.275 0.476,0.594 0.509,0.958c0.07,0.771 -0.511,2.574 -1.742,5.408c-0.837,1.955 -1.198,3.556 -1.085,4.797c0.121,1.329 0.578,2.432 1.371,3.309c0.217,0.239 0.843,0.594 1.878,1.06c0.497,0.236 0.773,0.664 0.83,1.285c0.035,0.386 -0.101,0.733 -0.406,1.042c-0.308,0.309 -0.695,0.484 -1.167,0.527c-1.071,0.099 -2.085,-0.241 -3.041,-1.019c-0.863,-0.698 -1.469,-1.767 -1.815,-3.203c-0.061,-0.192 -0.165,-0.744 -0.314,-1.659z"/>
            <path id="svg_11"
                  d="m166.617449,39.50087c0.255,-0.283 0.499,-0.564 0.732,-0.846c4.078,-4.778 6.878,-7.237 8.398,-7.375c0.836,-0.076 1.295,0.347 1.379,1.267c0.059,0.643 -0.246,1.438 -0.915,2.384c-3.656,5.15 -5.317,9.546 -4.985,13.188c0.107,1.178 0.531,2.272 1.272,3.286c0.345,0.466 0.529,0.837 0.555,1.115c0.023,0.257 -0.082,0.515 -0.318,0.774c-0.251,0.324 -0.569,0.505 -0.954,0.54c-0.879,0.08 -1.669,-0.41 -2.37,-1.469c-0.674,-0.997 -1.079,-2.244 -1.216,-3.744c-0.265,-2.893 0.536,-6.193 2.399,-9.906c-2.742,2.13 -5.151,5.676 -7.226,10.638c-0.539,1.195 -1.173,1.825 -1.9,1.892c-0.364,0.033 -0.676,-0.068 -0.936,-0.304c-0.327,-0.271 -0.512,-0.645 -0.555,-1.116c-0.105,-1.156 0.935,-4.308 3.121,-9.454c1.172,-2.783 2.11,-4.813 2.814,-6.088c0.706,-1.252 1.349,-1.905 1.927,-1.958c0.278,-0.025 0.559,0.079 0.839,0.313c0.327,0.273 0.509,0.602 0.544,0.987c0.043,0.472 -0.206,1.175 -0.747,2.109c-0.779,1.389 -1.399,2.645 -1.858,3.767z"/>
            <path id="svg_12"
                  d="m190.530449,34.56287c-1.078,3.578 -1.534,6.264 -1.37,8.064c0.08,0.878 0.318,1.591 0.714,2.139c0.494,0.688 1.096,1 1.802,0.936c1.457,-0.133 3.05,-1.26 4.778,-3.385c1.15,-1.356 2.096,-2.718 2.835,-4.081c0.479,-0.907 0.964,-1.384 1.457,-1.43c0.492,-0.045 0.762,0.18 0.807,0.672c0.074,0.814 -0.759,2.575 -2.499,5.282c-2.571,4.015 -5.227,6.147 -7.969,6.397c-1.65,0.15 -2.891,-0.546 -3.723,-2.09c-0.621,-1.131 -0.992,-2.351 -1.111,-3.656c-0.1,-1.094 0.01,-2.734 0.328,-4.923c-1.286,1.283 -3.139,4.305 -5.555,9.061c-0.639,1.288 -1.269,1.962 -1.89,2.019c-0.321,0.029 -0.612,-0.084 -0.874,-0.341c-0.263,-0.279 -0.408,-0.567 -0.436,-0.867c-0.078,-0.856 0.786,-3.819 2.592,-8.888c3.186,-8.865 6.774,-16.407 10.765,-22.625c2.151,-3.393 4.137,-5.907 5.952,-7.542c1.636,-1.488 2.979,-2.28 4.027,-2.376c0.472,-0.043 0.907,0.112 1.307,0.464c0.514,0.428 0.803,0.985 0.865,1.671c0.166,1.821 -0.574,4.243 -2.221,7.265c-1.724,3.117 -4.785,6.971 -9.183,11.562c-2.467,2.558 -4.71,4.599 -6.73,6.123c-0.228,0.583 -0.861,2.281 -1.899,5.098c2.413,-3.136 4.352,-5.321 5.816,-6.557c0.943,-0.777 2.238,-1.619 3.884,-2.525c1.111,-0.598 1.925,-0.921 2.438,-0.968c0.278,-0.025 0.534,0.06 0.769,0.254c0.253,0.171 0.395,0.417 0.424,0.739c0.064,0.707 -0.373,1.244 -1.312,1.61c-1.581,0.642 -3.178,1.608 -4.788,2.898zm-3.268,-5.273c3.302,-2.634 6.31,-5.878 9.025,-9.733c1.358,-1.916 2.423,-3.741 3.193,-5.476c0.537,-1.215 0.783,-2.069 0.738,-2.562c-0.045,-0.493 -0.292,-0.719 -0.741,-0.678c-1.2,0.11 -3.1,2.142 -5.697,6.093c-2.141,3.285 -4.313,7.403 -6.518,12.356z"/>
            <path id="svg_13"
                  d="m204.809449,44.76187c0.471,-0.043 0.887,0.136 1.247,0.535c0.239,0.258 0.379,0.603 0.418,1.03c0.092,1.008 -0.09,2.093 -0.545,3.257c-0.471,1.23 -1.178,1.89 -2.12,1.976c-0.985,0.09 -1.529,-0.423 -1.631,-1.536s0.138,-2.28 0.718,-3.499c0.526,-1.107 1.162,-1.695 1.913,-1.763z"/>
            <path id="svg_14"
                  d="m216.937449,32.76887c1.436,-1.793 2.894,-3.32 4.378,-4.579c1.905,-1.599 3.297,-2.439 4.176,-2.52c0.364,-0.033 0.731,0.085 1.102,0.353c0.417,0.309 0.646,0.687 0.687,1.136c0.053,0.579 -0.326,1.521 -1.135,2.825c-1.563,2.519 -2.718,4.784 -3.462,6.796c-0.662,1.745 -0.966,2.917 -0.911,3.518c0.053,0.577 0.358,0.842 0.915,0.791c1.157,-0.105 2.918,-2.341 5.284,-6.704c0.48,-0.886 0.946,-1.35 1.396,-1.391c0.45,-0.041 0.698,0.195 0.745,0.71c0.076,0.835 -0.592,2.506 -2.005,5.011c-1.227,2.186 -2.561,3.895 -4.003,5.128c-1.024,0.85 -1.976,1.314 -2.854,1.395c-0.922,0.084 -1.622,-0.252 -2.101,-1.008c-0.303,-0.468 -0.48,-1.003 -0.535,-1.604c-0.174,-1.905 0.303,-4.143 1.429,-6.708c0.27,-0.607 1.082,-2.344 2.44,-5.211c-4.169,2.604 -7.429,7.709 -9.78,15.311c-0.203,0.86 -0.592,1.317 -1.171,1.37c-0.407,0.037 -0.752,-0.072 -1.034,-0.327c-0.284,-0.276 -0.446,-0.629 -0.485,-1.058c-0.064,-0.707 0.438,-2.771 1.508,-6.195c1.99,-6.359 3.895,-11.76 5.714,-16.203c1.815,-4.485 3.862,-9.154 6.142,-14.005c0.54,-1.172 0.976,-1.969 1.304,-2.387c0.33,-0.419 0.697,-0.646 1.104,-0.684c0.386,-0.035 0.735,0.138 1.052,0.519c0.241,0.281 0.38,0.614 0.415,1c0.055,0.6 -0.215,1.435 -0.808,2.503c-1.987,3.789 -3.932,7.929 -5.832,12.422c-2.045,4.81 -3.271,8.075 -3.675,9.796z"/>
            <path id="svg_15"
                  d="m239.409449,39.01287c-0.804,1.369 -1.523,2.472 -2.16,3.308c-1.117,1.484 -2.287,2.281 -3.508,2.393c-1.05,0.096 -1.906,-0.301 -2.571,-1.19c-0.467,-0.627 -0.743,-1.4 -0.827,-2.322c-0.252,-2.764 0.637,-6.041 2.666,-9.833c0.94,-1.77 1.906,-3.143 2.896,-4.12c0.771,-0.783 1.425,-1.199 1.96,-1.248c0.3,-0.027 0.59,0.076 0.87,0.31c0.235,0.216 0.364,0.442 0.386,0.677c0.037,0.407 -0.298,1.108 -1.006,2.101c-1.585,2.283 -2.757,4.355 -3.516,6.217c-0.882,2.176 -1.268,3.853 -1.16,5.031c0.027,0.301 0.117,0.523 0.271,0.671c0.154,0.149 0.359,0.211 0.616,0.188c1.093,-0.101 2.471,-1.802 4.135,-5.107c0.857,-1.72 1.562,-3.598 2.11,-5.636c0.288,-1.106 0.703,-2.105 1.248,-2.997c0.531,-0.804 1.087,-1.233 1.665,-1.286c0.321,-0.029 0.623,0.084 0.906,0.339c0.305,0.275 0.475,0.594 0.508,0.958c0.071,0.771 -0.51,2.574 -1.742,5.407c-0.837,1.955 -1.197,3.555 -1.084,4.797c0.121,1.328 0.578,2.431 1.371,3.309c0.216,0.239 0.842,0.594 1.878,1.06c0.497,0.236 0.773,0.664 0.83,1.285c0.035,0.386 -0.101,0.733 -0.407,1.042s-0.695,0.484 -1.166,0.527c-1.071,0.098 -2.085,-0.242 -3.042,-1.019c-0.862,-0.698 -1.468,-1.767 -1.814,-3.203c-0.06,-0.192 -0.165,-0.744 -0.313,-1.659z"/>
            <path id="svg_16"
                  d="m274.251449,20.70287c1.691,-0.154 2.619,0.658 2.781,2.436c0.144,1.564 -0.323,3.193 -1.399,4.89c-0.834,1.287 -1.604,1.96 -2.311,2.025c-0.6,0.055 -0.931,-0.26 -0.993,-0.946c-0.033,-0.364 0.025,-0.661 0.178,-0.891c0.057,-0.092 0.291,-0.361 0.704,-0.81c0.352,-0.4 0.698,-0.982 1.039,-1.748c0.232,-0.518 0.337,-0.927 0.309,-1.227c-0.031,-0.342 -0.24,-0.497 -0.625,-0.461c-0.45,0.042 -1.104,0.458 -1.959,1.248c-1.354,1.269 -2.648,3.179 -3.884,5.733c-1.269,2.664 -1.837,4.724 -1.704,6.182c0.043,0.472 0.222,0.876 0.532,1.214c0.458,0.521 1.029,0.749 1.716,0.687c1.35,-0.124 2.868,-1.104 4.559,-2.943c1.432,-1.577 2.618,-3.133 3.56,-4.667c0.483,-0.842 0.93,-1.283 1.336,-1.32c0.236,-0.021 0.461,0.066 0.672,0.263c0.191,0.199 0.297,0.405 0.316,0.619c0.072,0.792 -0.805,2.428 -2.63,4.905c-2.906,3.895 -5.677,5.962 -8.312,6.202c-1.585,0.145 -2.847,-0.312 -3.786,-1.372c-0.676,-0.78 -1.065,-1.737 -1.169,-2.874c-0.204,-2.227 0.482,-4.893 2.056,-7.996c1.522,-2.968 3.372,-5.416 5.551,-7.342c1.28,-1.111 2.434,-1.713 3.463,-1.807z"/>
            <path id="svg_17"
                  d="m295.231449,17.36287c1.328,-0.122 2.347,0.023 3.054,0.434c0.707,0.411 1.104,1.098 1.192,2.062c0.115,1.264 -0.244,2.528 -1.079,3.792c-0.799,1.197 -2.065,2.219 -3.803,3.068c-0.953,0.455 -1.761,0.712 -2.424,0.772c-0.899,0.082 -1.387,-0.272 -1.459,-1.065c-0.049,-0.536 0.171,-0.966 0.66,-1.292c0.123,-0.076 0.835,-0.324 2.136,-0.745c0.776,-0.244 1.47,-0.685 2.082,-1.324c0.533,-0.545 0.772,-1.107 0.72,-1.686c-0.041,-0.45 -0.199,-0.77 -0.476,-0.961c-0.276,-0.19 -0.672,-0.262 -1.187,-0.215c-1.242,0.113 -2.567,0.742 -3.975,1.885c-1.632,1.294 -2.376,2.723 -2.233,4.286c0.102,1.114 0.797,2.454 2.084,4.021c1.431,1.706 2.203,3.191 2.319,4.454c0.172,1.885 -0.529,3.439 -2.103,4.663c-0.968,0.758 -2.104,1.196 -3.41,1.315c-2.057,0.188 -3.688,-0.407 -4.895,-1.788c-0.846,-0.981 -1.333,-2.19 -1.464,-3.625c-0.152,-1.671 0.147,-3.112 0.9,-4.326c0.489,-0.8 1.033,-1.228 1.632,-1.282c0.535,-0.049 0.823,0.141 0.862,0.569c0.016,0.171 -0.057,0.438 -0.218,0.798c-0.409,0.966 -0.557,2.07 -0.443,3.313c0.096,1.049 0.552,1.904 1.367,2.564c0.724,0.581 1.513,0.834 2.37,0.756c0.835,-0.076 1.463,-0.414 1.883,-1.015c0.344,-0.506 0.481,-1.124 0.415,-1.852c-0.083,-0.9 -0.703,-2.021 -1.862,-3.362c-1.595,-1.842 -2.464,-3.566 -2.61,-5.173c-0.195,-2.142 0.799,-4.144 2.983,-6.007c2.128,-1.792 4.455,-2.804 6.982,-3.034z"/>
            <path id="svg_18"
                  d="m308.133449,32.35187c-0.594,1.307 -1.194,2.42 -1.801,3.338c-1.197,1.794 -2.461,2.751 -3.788,2.873c-1.157,0.106 -2.106,-0.357 -2.848,-1.392c-0.473,-0.669 -0.752,-1.486 -0.84,-2.451c-0.217,-2.376 0.294,-5.069 1.53,-8.077c1.38,-3.344 3.17,-5.98 5.37,-7.909c1.44,-1.255 2.878,-1.948 4.313,-2.079c0.899,-0.082 1.675,0.128 2.325,0.63c0.559,0.446 0.867,0.979 0.924,1.601c0.043,0.472 -0.08,1.142 -0.368,2.01c0.362,0.421 0.56,0.803 0.591,1.145c0.041,0.45 -0.192,1.217 -0.697,2.299c-0.526,1.106 -1.021,2.556 -1.482,4.348c-0.496,1.902 -0.693,3.411 -0.592,4.524c0.082,0.899 0.417,1.614 1.006,2.144c0.163,0.136 0.625,0.342 1.385,0.618c0.559,0.209 0.868,0.633 0.927,1.276c0.037,0.408 -0.084,0.754 -0.359,1.038c-0.295,0.308 -0.657,0.481 -1.086,0.521c-1.157,0.105 -2.199,-0.318 -3.13,-1.271c-0.762,-0.772 -1.199,-1.791 -1.314,-3.055c-0.039,-0.427 -0.062,-1.138 -0.066,-2.131zm3.052,-10.938c-0.3,-0.448 -0.611,-0.771 -0.932,-0.968c-0.32,-0.197 -0.651,-0.28 -0.993,-0.249c-1.629,0.148 -3.266,1.735 -4.913,4.757c-1.812,3.34 -2.617,6.103 -2.418,8.288c0.049,0.536 0.188,0.933 0.416,1.193c0.229,0.26 0.547,0.372 0.954,0.334c1.028,-0.094 2.129,-1.295 3.3,-3.606c0.662,-1.269 1.454,-3.124 2.376,-5.562c0.611,-1.59 1.064,-2.646 1.363,-3.17c0.148,-0.273 0.43,-0.612 0.847,-1.017z"/>
            <path id="svg_19"
                  d="m323.896449,19.05487c0.828,-0.637 1.445,-1.083 1.854,-1.336c0.839,-0.508 1.677,-0.8 2.512,-0.876c0.942,-0.086 1.674,0.122 2.195,0.625c0.521,0.503 0.832,1.301 0.932,2.394c0.137,1.5 -0.225,3.346 -1.082,5.542c-1.324,3.468 -3.058,6.261 -5.196,8.379c-1.804,1.784 -3.562,2.755 -5.275,2.911c-0.942,0.086 -1.907,-0.192 -2.895,-0.837c-2.393,6.201 -4.465,12.492 -6.215,18.872c-0.357,1.522 -0.869,2.314 -1.533,2.375c-0.321,0.029 -0.662,-0.155 -1.022,-0.555c-0.263,-0.278 -0.41,-0.599 -0.443,-0.964c-0.105,-1.156 0.965,-5.045 3.212,-11.664c3.474,-10.21 6.874,-18.739 10.203,-25.587c0.688,-1.445 1.148,-2.438 1.381,-2.977c0.621,-1.461 1.285,-2.224 1.992,-2.289c0.729,-0.066 1.134,0.34 1.214,1.218c0.046,0.493 -0.151,1.18 -0.589,2.063c-0.524,1.128 -0.939,2.03 -1.245,2.706zm-6.013,13.995c0.516,0.449 1.128,0.642 1.835,0.577c1.992,-0.182 4.037,-2.15 6.135,-5.906c0.781,-1.388 1.376,-2.793 1.786,-4.213c0.328,-1.131 0.468,-1.975 0.417,-2.532c-0.035,-0.386 -0.152,-0.667 -0.352,-0.843c-0.201,-0.176 -0.492,-0.246 -0.879,-0.211c-1.006,0.092 -2.175,0.901 -3.504,2.426c-1.27,1.476 -2.435,3.493 -3.497,6.053c-0.973,2.357 -1.619,3.906 -1.941,4.649z"/>
            <path id="svg_20"
                  d="m342.513449,29.21387c-0.594,1.307 -1.194,2.421 -1.801,3.339c-1.198,1.794 -2.461,2.751 -3.788,2.873c-1.157,0.106 -2.107,-0.357 -2.849,-1.392c-0.472,-0.669 -0.751,-1.486 -0.839,-2.451c-0.217,-2.376 0.294,-5.069 1.53,-8.077c1.38,-3.343 3.169,-5.98 5.369,-7.909c1.441,-1.254 2.879,-1.947 4.313,-2.078c0.9,-0.082 1.675,0.128 2.326,0.63c0.559,0.446 0.867,0.979 0.924,1.601c0.043,0.472 -0.081,1.141 -0.368,2.01c0.362,0.42 0.56,0.803 0.591,1.145c0.041,0.45 -0.192,1.217 -0.697,2.299c-0.527,1.106 -1.02,2.556 -1.482,4.348c-0.497,1.902 -0.693,3.411 -0.592,4.524c0.082,0.899 0.417,1.614 1.005,2.144c0.164,0.136 0.626,0.342 1.386,0.618c0.559,0.209 0.867,0.634 0.926,1.276c0.037,0.408 -0.082,0.753 -0.359,1.037c-0.294,0.309 -0.657,0.482 -1.085,0.521c-1.157,0.105 -2.2,-0.318 -3.13,-1.27c-0.762,-0.773 -1.2,-1.791 -1.315,-3.055c-0.039,-0.429 -0.061,-1.14 -0.065,-2.133zm3.052,-10.938c-0.3,-0.448 -0.611,-0.771 -0.932,-0.968c-0.321,-0.197 -0.651,-0.28 -0.994,-0.249c-1.628,0.148 -3.265,1.734 -4.912,4.757c-1.811,3.34 -2.617,6.103 -2.418,8.288c0.049,0.536 0.188,0.933 0.416,1.193c0.229,0.261 0.547,0.372 0.954,0.335c1.028,-0.094 2.129,-1.295 3.3,-3.606c0.661,-1.269 1.453,-3.124 2.375,-5.562c0.611,-1.59 1.065,-2.646 1.364,-3.17c0.148,-0.274 0.429,-0.612 0.847,-1.018z"/>
            <path id="svg_21"
                  d="m357.820449,12.29787c-1.196,2.291 -2.261,4.829 -3.194,7.614c-1.344,3.968 -1.93,6.894 -1.758,8.778c0.049,0.536 0.198,0.933 0.448,1.19c0.25,0.258 0.601,0.366 1.051,0.325c1.07,-0.098 2.274,-1.223 3.611,-3.376c0.852,-1.33 1.595,-2.649 2.231,-3.961c0.342,-0.744 0.748,-1.137 1.22,-1.181c0.278,-0.025 0.523,0.049 0.733,0.225c0.188,0.177 0.293,0.362 0.311,0.555c0.072,0.792 -0.806,2.654 -2.633,5.586c-2.185,3.525 -4.305,5.382 -6.361,5.57c-1.092,0.1 -2.048,-0.32 -2.868,-1.262c-0.508,-0.602 -0.816,-1.49 -0.924,-2.668c-0.236,-2.592 0.237,-5.68 1.422,-9.267c0.285,-0.89 1.104,-3.049 2.455,-6.477c-0.564,0.203 -0.998,0.318 -1.297,0.345c-0.449,0.041 -0.856,-0.03 -1.218,-0.213c-0.499,-0.256 -0.769,-0.61 -0.81,-1.06c-0.049,-0.535 0.222,-0.992 0.813,-1.37c0.164,-0.101 0.943,-0.313 2.34,-0.635c0.506,-0.132 1.236,-0.404 2.192,-0.815c0.627,-1.418 1.682,-3.361 3.163,-5.829c0.825,-1.371 1.401,-2.266 1.73,-2.685c0.466,-0.583 0.891,-0.891 1.276,-0.926c0.278,-0.025 0.57,0.099 0.877,0.374c0.282,0.255 0.436,0.522 0.461,0.8c0.051,0.557 -0.448,1.714 -1.497,3.473c-0.695,1.144 -1.205,2.065 -1.53,2.764c2.319,-0.859 3.993,-1.336 5.021,-1.43c1.178,-0.108 1.812,0.332 1.901,1.316c0.045,0.493 -0.125,0.876 -0.51,1.148c-0.203,0.148 -0.75,0.306 -1.642,0.474c-0.367,0.012 -1.947,0.567 -4.739,1.664c-0.768,0.309 -1.528,0.627 -2.275,0.954z"/>
            <path id="svg_22"
                  d="m372.975449,26.43387c-0.594,1.307 -1.194,2.42 -1.801,3.338c-1.197,1.794 -2.461,2.751 -3.788,2.873c-1.157,0.106 -2.106,-0.357 -2.849,-1.392c-0.472,-0.669 -0.751,-1.486 -0.839,-2.451c-0.217,-2.376 0.294,-5.069 1.53,-8.077c1.38,-3.344 3.17,-5.98 5.37,-7.909c1.44,-1.255 2.878,-1.948 4.313,-2.079c0.899,-0.082 1.675,0.128 2.325,0.63c0.559,0.446 0.867,0.979 0.924,1.601c0.043,0.472 -0.08,1.142 -0.368,2.01c0.362,0.421 0.56,0.803 0.591,1.145c0.041,0.45 -0.192,1.217 -0.697,2.299c-0.526,1.106 -1.021,2.556 -1.482,4.348c-0.496,1.902 -0.693,3.411 -0.592,4.524c0.082,0.899 0.417,1.614 1.006,2.144c0.163,0.136 0.625,0.342 1.385,0.618c0.559,0.209 0.868,0.633 0.927,1.276c0.037,0.408 -0.084,0.753 -0.359,1.038c-0.295,0.308 -0.657,0.481 -1.086,0.521c-1.157,0.105 -2.199,-0.318 -3.13,-1.27c-0.762,-0.772 -1.199,-1.791 -1.314,-3.055c-0.039,-0.428 -0.062,-1.139 -0.066,-2.132zm3.052,-10.938c-0.3,-0.448 -0.611,-0.771 -0.932,-0.968c-0.32,-0.197 -0.651,-0.28 -0.993,-0.249c-1.629,0.148 -3.266,1.735 -4.913,4.757c-1.812,3.34 -2.616,6.103 -2.417,8.288c0.049,0.536 0.187,0.933 0.415,1.193c0.229,0.26 0.547,0.372 0.954,0.334c1.028,-0.094 2.129,-1.295 3.3,-3.606c0.662,-1.269 1.454,-3.124 2.376,-5.562c0.611,-1.59 1.064,-2.646 1.363,-3.17c0.148,-0.273 0.43,-0.612 0.847,-1.017z"/>
        </g>
    </g>
</svg>